<svg width="102" height="16" viewBox="0 0 102 15.9016" fill="none" xmlns="http://www.w3.org/2000/svg">
<g id="Group">
<path id="Vector" fill-rule="evenodd" clip-rule="evenodd" d="M0.314772 15.344V12.3174C2.06091 12.8596 3.60601 13.1307 4.95006 13.1307C6.80575 13.1307 7.73374 12.6468 7.73374 11.6796C7.73374 11.3191 7.59869 11.0161 7.32799 10.7707C7.05116 10.5105 6.34216 10.1498 5.20282 9.68758C3.15853 8.85829 1.82549 8.15107 1.20544 7.56612C0.401778 6.79399 0 5.82031 0 4.64365C0 3.12838 0.58548 1.97346 1.75562 1.1798C2.91281 0.393087 4.41966 0.000131262 6.27851 0.000131262C7.30269 0.000131262 8.78506 0.186093 10.724 0.558521V3.47002C9.28129 2.90146 7.94213 2.61779 6.70487 2.61779C4.96261 2.61779 4.09153 3.08974 4.09153 4.03575C4.09153 4.38936 4.26697 4.67777 4.61836 4.90136C4.91059 5.08229 5.71577 5.46448 7.03219 6.04914C8.92765 6.87963 10.1895 7.60154 10.8182 8.21558C11.5642 8.94393 11.938 9.88642 11.938 11.0416C11.938 12.7021 11.2059 13.9687 9.74284 14.8415C8.55749 15.5492 7.02046 15.9016 5.13264 15.9016C3.53838 15.9016 1.93208 15.7164 0.314772 15.344V15.344Z" fill="var(--fill-0, white)"/>
<path id="Vector_2" fill-rule="evenodd" clip-rule="evenodd" d="M14.3884 0.267851H18.7275V15.5933H14.3884V0.267851Z" fill="var(--fill-0, white)"/>
<path id="Vector_3" fill-rule="evenodd" clip-rule="evenodd" d="M22.7067 15.5933V0.267851H33.8354V3.03978H26.8887V6.5003H32.9354V9.02871H26.8887V12.6655H34.0144V15.5933H22.7067Z" fill="var(--fill-0, white)"/>
<path id="Vector_4" fill-rule="evenodd" clip-rule="evenodd" d="M36.8469 15.5933V0.267851H42.4727L46.3812 10.0602L50.3878 0.267851H55.7314V15.5933H51.6174V4.74252L47.0617 15.7489H44.372L39.904 4.74252V15.5933H36.8469Z" fill="var(--fill-0, white)"/>
<path id="Vector_5" fill-rule="evenodd" clip-rule="evenodd" d="M59.7117 15.5933V0.267851H70.8402V3.03978H63.8941V6.5003H69.9407V9.02871H63.8941V12.6655H71.0203V15.5933H59.7117Z" fill="var(--fill-0, white)"/>
<path id="Vector_6" fill-rule="evenodd" clip-rule="evenodd" d="M73.8759 15.5933V0.267851H78.9049L84.2403 10.5271V0.267851H87.2966V15.5933H82.4104L76.9334 5.19605V15.5933H73.8759Z" fill="var(--fill-0, white)"/>
<path id="Vector_7" fill-rule="evenodd" clip-rule="evenodd" d="M90.3765 15.344V12.3174C92.1079 12.8596 93.6528 13.1307 95.0127 13.1307C96.8685 13.1307 97.7954 12.6468 97.7954 11.6796C97.7954 11.3191 97.6639 11.0161 97.4023 10.7707C97.1241 10.5105 96.4121 10.1498 95.2659 9.68758C93.2278 8.86514 91.8934 8.15822 91.2676 7.56612C90.4644 6.80084 90.0633 5.82353 90.0633 4.63319C90.0633 3.12446 90.6474 1.97336 91.8187 1.1797C92.9742 0.392985 94.4828 2.8784e-05 96.3418 2.8784e-05C97.387 2.8784e-05 98.7414 0.163752 100.402 0.492708L100.786 0.558419V3.46992C99.3432 2.90136 98.0001 2.61769 96.7562 2.61769C95.0206 2.61769 94.1549 3.08964 94.1549 4.03565C94.1549 4.38926 94.3295 4.67767 94.6799 4.90126C94.9584 5.07525 95.7668 5.45764 97.1053 6.04904C98.9864 6.87953 100.246 7.60144 100.88 8.21548C101.627 8.94383 102 9.88632 102 11.0415C102 12.702 101.272 13.9686 99.8163 14.8414C98.6241 15.5491 97.0832 15.9015 95.1956 15.9015C93.5997 15.9016 91.9926 15.7164 90.3765 15.344V15.344Z" fill="var(--fill-0, white)"/>
</g>
</svg>
